<svg width="24" height="24" viewBox="0 0 6.35 6.35" xmlns="http://www.w3.org/2000/svg"><defs><path id="a" d="M-465.245 121.775H78.061v715.04h-543.306z"/><path id="b" d="M-465.245 121.775H78.061v715.04h-543.306z"/></defs><circle style="opacity:1;fill:#006ab9;fill-opacity:1;stroke:none;stroke-width:.111935" cx="3.175" cy="3.175" r="2.842"/><path style="display:inline;fill:#fff;fill-opacity:1;stroke:#fff;stroke-width:.00795984px;stroke-linecap:butt;stroke-linejoin:miter;stroke-opacity:1" d="M3.1.918c-.878 0-1.414.755-1.414 1.713 0 .958.545 1.58 1.467 1.608 1.475.047.905-.343.905-.343s.198 1.106-.816 1.106c-.735 0-1.09-.459-1.09-.459l-.273.329s1.48 1.26 2.742 0l.043-3.369S3.98.918 3.1.918zm-.12.581c.309-.006.684.136 1.07.359V3.51c-.95.254-1.834.421-1.834-.83 0-.848.312-1.173.764-1.181z"/></svg>